<svg width="402" height="785" fill="none" xmlns="http://www.w3.org/2000/svg"><path opacity=".2" d="m318.588 670.313 72.096-27.398A16 16 0 0 0 401 627.959v-36.894m-82.412 79.248V116.862m0 553.451-104.523 39.72m104.523-593.171 72.185 27.926A15.999 15.999 0 0 1 401 159.71v52.712m-82.412-95.56L214.065 76.426m0 0L22.773 2.423C12.288-1.633 1 6.103 1 17.345v70.46m213.065-11.379v633.607m0 0L22.684 782.76C12.214 786.739 1 779.005 1 767.803v-97.49m400-79.248L1 670.313m400-79.248v-62.993M1 670.313V558.199m0 0 400-30.127M1 558.199v-93.12m400 62.993v-62.993m0 0H1m400 0v-62.993M1 465.079V369.22m400 32.866L1 369.22m400 32.866v-62.993M1 369.22V276.1m400 62.993L1 276.1m400 62.993V276.1m-400 0v-94.49m400 94.49L1 181.61m400 94.49v-63.678M1 181.61V87.805m400 124.617L1 87.805" stroke="url(#a)"/><defs><linearGradient id="a" x1="401" y1="409.658" x2="1" y2="409.658" gradientUnits="userSpaceOnUse"><stop stop-color="#916328"/><stop offset="1" stop-color="#FEF0DE"/></linearGradient></defs></svg>