<svg width="401" height="785" fill="none" xmlns="http://www.w3.org/2000/svg"><path opacity=".2" d="m83.412 670.313-72.096-27.398A16 16 0 0 1 1 627.959v-36.894m82.412 79.248V116.862m0 553.451 104.523 39.72M83.412 116.862l-72.185 27.926A15.999 15.999 0 0 0 1 159.71v52.712m82.412-95.56 104.523-40.436m0 0L379.227 2.423C389.712-1.633 401 6.103 401 17.345v70.46M187.935 76.426v633.607m0 0 191.381 72.727c10.471 3.979 21.684-3.755 21.684-14.957v-97.49M1 591.065l400 79.248M1 591.065v-62.993m400 142.241V558.199m0 0L1 528.072m400 30.127v-93.12M1 528.072v-62.993m0 0h400m-400 0v-62.993m400 62.993V369.22M1 402.086l400-32.866M1 402.086v-62.993m400 30.127V276.1M1 339.093 401 276.1M1 339.093V276.1m400 0v-94.49M1 276.1l400-94.49M1 276.1v-63.678m400-30.812V87.805M1 212.422 401 87.805" stroke="url(#a)"/><defs><linearGradient id="a" x1="1" y1="409.658" x2="401" y2="409.658" gradientUnits="userSpaceOnUse"><stop stop-color="#916328"/><stop offset="1" stop-color="#FEF0DE"/></linearGradient></defs></svg>