<svg width="30" height="30" fill="none" xmlns="http://www.w3.org/2000/svg"><g clip-path="url(#a)" fill-rule="evenodd" clip-rule="evenodd"><path d="M8.418 0C2.254 0 0 2.254 0 8.416v13.168C0 27.746 2.254 30 8.418 30h13.16C27.742 30 30 27.746 30 21.584V8.416C30 2.254 27.746 0 21.582 0H8.418z" fill="url(#b)"/><path d="M13.086 17.4h1.204l-.604-1.406-.6 1.405zm-.297.708-.357.817h-.814L13.348 15h.704l1.723 3.925h-.836l-.352-.817h-1.798zm13.091.814h.787V15h-.787v3.922zm-3.13-1.685h1.45v-.715h-1.45v-.804h2.105v-.715h-2.89v3.922h2.966v-.716h-2.18v-.972zm-3.123.464L18.735 15h-.65l-.892 2.7-.867-2.698h-.849l1.37 3.925h.659l.893-2.578.893 2.578h.665l1.366-3.925h-.827l-.87 2.699zm-9.209-.453c0 .639-.317.98-.893.98-.579 0-.897-.351-.897-1.007v-2.218H7.83v2.245c0 1.105.614 1.738 1.683 1.738 1.08 0 1.7-.645 1.7-1.77V15h-.796v2.248zM5.93 15h.797v3.928h-.797v-1.595H4.13v1.595h-.797V15h.797v1.584h1.8V15zM15 10c-2.757 0-5-2.243-5-5h.706A4.299 4.299 0 0 0 15 9.293 4.299 4.299 0 0 0 19.294 5H20c0 2.757-2.243 5-5 5z" fill="#fff"/></g><defs><linearGradient id="b" x1="15" y1="0" x2="15" y2="30" gradientUnits="userSpaceOnUse"><stop stop-color="#FB6361"/><stop offset="1" stop-color="#ED3E45"/></linearGradient><clipPath id="a"><path fill="#fff" d="M0 0h30v30H0z"/></clipPath></defs></svg>