<svg width="34" height="34" viewBox="0 0 34 34" fill="none" xmlns="http://www.w3.org/2000/svg">
<path d="M25.9675 8.03248L9.33584 24.6641C8.71251 25.2875 7.66418 25.2025 7.15418 24.4658C5.39751 21.9016 4.36334 18.87 4.36334 15.7533V9.53415C4.36334 8.37248 5.24168 7.05498 6.31834 6.61581L14.2092 3.38581C15.9942 2.64915 17.9775 2.64915 19.7625 3.38581L25.5 5.72331C26.435 6.10581 26.6758 7.32415 25.9675 8.03248Z" fill="#F7971E"/>
<path d="M27.2992 9.97336C28.22 9.19419 29.6225 9.86003 29.6225 11.0642V15.7534C29.6225 22.6809 24.5933 29.1692 17.7225 31.0675C17.255 31.195 16.745 31.195 16.2633 31.0675C14.2517 30.5009 12.3817 29.5517 10.7808 28.305C10.1008 27.7809 10.03 26.7892 10.625 26.18C13.7133 23.0209 22.7517 13.8125 27.2992 9.97336Z" fill="#F7971E"/>
</svg>
