<svg width="33" height="32" viewBox="0 0 33 32" fill="none" xmlns="http://www.w3.org/2000/svg">
<path d="M21.4139 15.9934C21.4139 13.194 19.1282 10.9241 16.2377 10.9241C13.3462 10.9241 11.0625 13.1852 11.0625 15.9934C11.0625 17.0308 11.3858 18.0427 11.9875 18.8859C12.5847 19.7254 13.4354 20.3578 14.4184 20.693L12.3843 31.103H20.0203L18.0569 20.693C20.0194 19.9399 21.4129 18.1809 21.4129 15.9924L21.4139 15.9934Z" fill="#F7971E"/>
<path d="M32.619 15.9173C32.619 7.16122 25.3053 0.0493164 16.311 0.0493164C7.3163 0.0493164 0 7.15422 0 15.9173C0 21.7328 3.2107 26.7933 7.995 29.5193L9.0215 22.736C7.42882 21.02 6.53852 18.7826 6.5229 16.4567C6.5229 11.2521 10.8775 7.01822 16.2297 7.01822C21.5809 7.01822 25.9375 11.2521 25.9375 16.4577C25.9389 18.8071 25.0515 21.0726 23.4489 22.8115L24.4833 29.5948C29.372 26.866 32.6196 21.7349 32.6196 15.9198" fill="#F7971E"/>
</svg>
