<svg width="34" height="34" viewBox="0 0 34 34" fill="none" xmlns="http://www.w3.org/2000/svg">
<path d="M26.265 5.90745L18.4733 2.98912C17.6658 2.69162 16.3483 2.69162 15.5408 2.98912L7.74917 5.90745C6.24751 6.47412 5.02917 8.23078 5.02917 9.83162V21.3066C5.02917 22.4541 5.78001 23.9699 6.70084 24.6499L14.4925 30.4725C15.8667 31.5066 18.1192 31.5066 19.4933 30.4725L27.285 24.6499C28.2058 23.9558 28.9567 22.4541 28.9567 21.3066V9.83162C28.9708 8.23078 27.7525 6.47412 26.265 5.90745ZM18.0625 18.2324V21.9583C18.0625 22.5391 17.5808 23.0208 17 23.0208C16.4192 23.0208 15.9375 22.5391 15.9375 21.9583V18.2324C14.5067 17.7791 13.4583 16.4474 13.4583 14.8749C13.4583 12.9199 15.045 11.3333 17 11.3333C18.955 11.3333 20.5417 12.9199 20.5417 14.8749C20.5417 16.4616 19.4933 17.7791 18.0625 18.2324Z" fill="#F7971E"/>
</svg>
