<svg width="34" height="34" viewBox="0 0 34 34" fill="none" xmlns="http://www.w3.org/2000/svg">
<path d="M18.7708 17C19.7488 17 20.5417 16.2072 20.5417 15.2292C20.5417 14.2512 19.7488 13.4583 18.7708 13.4583C17.7928 13.4583 17 14.2512 17 15.2292C17 16.2072 17.7928 17 18.7708 17Z" fill="#F7971E"/>
<path d="M22.9358 2.83331H11.0641C5.90748 2.83331 2.83331 5.90748 2.83331 11.0641V22.9216C2.83331 28.0925 5.90748 31.1666 11.0641 31.1666H22.9216C28.0783 31.1666 31.1525 28.0925 31.1525 22.9358V11.0641C31.1666 5.90748 28.0925 2.83331 22.9358 2.83331ZM22.5108 19.0825C21.0516 20.5275 18.9691 20.9808 17.1275 20.4L15.6258 21.8875C15.4983 22.015 15.2716 22.015 15.13 21.8875L13.7558 20.5133C13.5575 20.315 13.2175 20.315 13.005 20.5133C12.7925 20.7116 12.8066 21.0516 13.005 21.2641L14.3791 22.6383C14.5208 22.78 14.5208 23.0066 14.3791 23.1341L13.7983 23.715C13.5575 23.97 13.09 24.1258 12.75 24.0833L11.2058 23.8708C10.6958 23.8 10.2283 23.3183 10.1433 22.8083L9.93081 21.2641C9.87415 20.9241 10.0441 20.4566 10.2708 20.2158L13.6 16.8866C13.0333 15.045 13.4725 12.9625 14.9316 11.5033C17.0141 9.42081 20.4141 9.42081 22.5108 11.5033C24.6075 13.5858 24.6075 16.9858 22.5108 19.0825Z" fill="#F7971E"/>
</svg>
