<svg width="34" height="34" viewBox="0 0 34 34" fill="none" xmlns="http://www.w3.org/2000/svg">
<path d="M17 11.6875C14.4642 11.6875 12.3958 13.7558 12.3958 16.2917C12.3958 18.8275 14.4642 20.8958 17 20.8958C19.5358 20.8958 21.6042 18.8275 21.6042 16.2917C21.6042 13.7558 19.5358 11.6875 17 11.6875ZM18.4167 15.8383C18.4167 16.7025 17.9492 17.5242 17.2125 17.9633L16.1217 18.615C15.9517 18.7142 15.7675 18.7708 15.5692 18.7708C15.215 18.7708 14.8608 18.5867 14.6625 18.2608C14.365 17.7508 14.5208 17.0992 15.0308 16.8017L16.1075 16.15C16.2208 16.0792 16.2775 15.9658 16.2775 15.8525V14.535C16.2775 13.9542 16.7592 13.4725 17.34 13.4725C17.9208 13.4725 18.4167 13.94 18.4167 14.5208V15.8383Z" fill="#F7971E"/>
<path d="M26.265 5.90751L18.4733 2.98918C17.6658 2.69168 16.3483 2.69168 15.5408 2.98918L7.74917 5.90751C6.24751 6.47418 5.02917 8.23084 5.02917 9.83168V21.3067C5.02917 22.4542 5.78001 23.97 6.70084 24.65L14.4925 30.4725C15.8667 31.5067 18.1192 31.5067 19.4933 30.4725L27.285 24.65C28.2058 23.9558 28.9567 22.4542 28.9567 21.3067V9.83168C28.9708 8.23084 27.7525 6.47418 26.265 5.90751ZM17 23.0208C13.2883 23.0208 10.2708 20.0033 10.2708 16.2917C10.2708 12.58 13.2883 9.56251 17 9.56251C20.7117 9.56251 23.7292 12.58 23.7292 16.2917C23.7292 20.0033 20.7117 23.0208 17 23.0208Z" fill="#F7971E"/>
</svg>
