<svg width="50" height="50" viewBox="0 0 31 31" fill="none" xmlns="http://www.w3.org/2000/svg"><g clip-path="url(#a)" fill="#AFAFAF"><path d="M27.31 26.75c-3.15 2.325-7.876 3.75-11.7 3.75-5.476 0-10.35-2.175-14.1-5.55-.3-.3 0-.6.3-.45 4.05 2.325 8.624 3.675 13.724 3.675 3.45 0 7.8-.75 11.325-2.25.525-.15.975.45.45.825zm1.124-1.575c-.375-.525-2.625-.225-3.6-.15-.3 0-.375-.225-.075-.45 1.725-1.275 4.65-.9 4.95-.45.3.45-.075 3.375-1.725 4.725-.225.225-.525.075-.375-.15.375-.9 1.2-3 .825-3.525zM25.284 19.85c-.75-.975-1.5-1.8-1.5-3.675V9.95c0-2.625 0-4.95-1.875-6.75-1.5-1.425-3.975-1.95-5.925-1.95-4.125 0-7.725 1.65-8.625 6.3-.075.525.3.75.6.825l3.825.45c.375 0 .6-.375.675-.75.3-1.575 1.575-2.325 3.075-2.325.825 0 2.4.45 2.4 2.25v2.25c-2.4 0-4.95 0-7.05.9-2.475 1.05-4.2 3.225-4.2 6.45 0 4.125 2.55 6.15 5.85 6.15 2.775 0 4.425-.675 6.6-2.85.675 1.05.975 1.65 2.25 2.775.3.15.675.15.9-.075.75-.675 2.175-1.95 3-2.625.375-.3.3-.75 0-1.125zm-7.425-5.775c0 1.5-.075 5.175-3.75 5.175-2.25 0-2.25-2.25-2.25-2.25 0-3.375 3.15-3.75 6-3.75v.825z"/></g><defs><clipPath id="a"><path fill="#fff" transform="translate(.61 .5)" d="M0 0h50v50H0z"/></clipPath></defs></svg>