<svg width="188" height="48" fill="none" xmlns="http://www.w3.org/2000/svg"><path d="m9.32 9.328.002-.003-.001.003zm0 0 1.266.653-1.265-.653zm12.914 36.274-.836-1.334.836 1.334 2.107-1.32c8.762-5.49 14.385-14.682 15.162-24.835l.691-9.033a1.724 1.724 0 0 0-1.719-1.856h-5.59c-2.344-3.87-6.655-6.45-11.566-6.45-4.912 0-9.223 2.58-11.567 6.45h-5.59a1.724 1.724 0 0 0-1.72 1.856l.692 9.033c.777 10.153 6.4 19.345 15.162 24.835l2.107 1.32c.56.35 1.271.35 1.83 0z" fill="#0A0B0B" stroke="#fff" stroke-width="3.149"/><path fill-rule="evenodd" clip-rule="evenodd" d="M10.58 29.907c.033.06.114.073.163.025l4.82-4.723a.104.104 0 0 0 .017-.125 6.25 6.25 0 0 1-.781-3.033c0-3.527 2.92-6.385 6.522-6.385 1.12 0 2.175.276 3.096.763.04.021.089.014.121-.017l4.839-4.742a.102.102 0 0 0 .013-.13 9.726 9.726 0 0 0-8.068-4.242c-3.643 0-6.816 1.972-8.469 4.886a.795.795 0 0 1-.686.41h-4.68a.284.284 0 0 0-.283.306l.551 7.245a24.9 24.9 0 0 0 2.826 9.762zm2.053 3.104a.102.102 0 0 0-.01.134 25.585 25.585 0 0 0 6.913 6.396l1.231.776c.34.213.77.213 1.11 0l1.23-.776c6.817-4.294 11.18-11.477 11.782-19.396l.55-7.245a.284.284 0 0 0-.282-.305h-1.65a.103.103 0 0 0-.072.029l-6.37 6.243a.104.104 0 0 0-.017.125c.507.908.796 1.95.796 3.059 0 3.526-2.92 6.385-6.523 6.385a6.604 6.604 0 0 1-3.122-.778.104.104 0 0 0-.121.017l-5.444 5.336z" fill="#F7971E"/><circle cx="21.319" cy="22.051" r="3.374" fill="#F7971E"/><path d="m62.917 30.737-7.194-15.803a6.535 6.535 0 0 1-.325-.885h6.31c.059.266.118.472.206.708l5.956 13.769c.177.442.501.619.855.619s.619-.148.825-.62l5.897-13.768c.088-.206.177-.472.236-.708h6.22c-.088.295-.176.56-.323.885l-7.135 15.803c-1.12 2.477-2.92 3.656-5.75 3.656-2.8 0-4.658-1.18-5.778-3.656zM87.472 14.05h13.208c2.831 0 4.659.825 5.986 2.152a7.549 7.549 0 0 1 2.211 5.307c0 1.769-.649 3.45-1.74 4.776-1.356 1.622-3.39 2.683-6.457 2.683h-9.169v5.012h-5.336V15.288c0-.826.442-1.239 1.297-1.239zm4.04 10.024h9.286c1.18 0 1.858-.354 2.3-.944a2.27 2.27 0 0 0 .472-1.415c0-.59-.177-1.09-.501-1.504-.443-.53-1.121-.884-2.271-.884h-8.904c-.236 0-.383.118-.383.413v4.334zM138.412 14.05v16.068c0 3.007-1.798 4.275-3.744 4.275-1.681 0-2.948-.472-3.892-1.563l-10.938-12.648c-.148-.177-.295-.265-.472-.265-.265 0-.501.206-.501.56V33.98h-5.248V18.266c0-3.391 1.946-4.659 4.629-4.659 1.887 0 3.066.501 4.304 1.976l9.73 11.646c.147.206.324.235.501.235.236 0 .413-.177.413-.53V14.049h5.218zM164.872 33.98h-14.476c-4.894 0-6.486-2.152-6.486-6.486V14.049h5.366v12.944c0 1.444.383 1.887 1.769 1.887h13.827v5.1zM172.73 24.693l-9.051-9.966c-.295-.324-.413-.471-.502-.678h6.575c.059.148.207.413.472.678l5.012 5.455c.118.118.236.206.413.206s.295-.088.413-.206l4.982-5.454c.266-.266.442-.531.501-.679h6.457c-.118.207-.236.354-.53.678l-9.347 10.32v8.933h-5.395v-9.287z" fill="#fff"/></svg>