<?xml version="1.0" standalone="no"?>
<!DOCTYPE svg PUBLIC "-//W3C//DTD SVG 20010904//EN"
 "http://www.w3.org/TR/2001/REC-SVG-20010904/DTD/svg10.dtd">
<svg version="1.0" xmlns="http://www.w3.org/2000/svg"
 width="688.000000pt" height="688.000000pt" viewBox="0 0 688.000000 688.000000"
 preserveAspectRatio="xMidYMid meet">
<metadata>
Created by potrace 1.14, written by Peter Selinger 2001-2017
</metadata>
<g transform="translate(0.000000,688.000000) scale(0.100000,-0.100000)"
fill="#000000" stroke="none">
<path d="M3277 6359 c-363 -30 -745 -184 -1017 -409 -142 -118 -293 -295 -392
-459 l-37 -61 -489 0 c-413 0 -491 -2 -501 -14 -10 -11 -2 -143 33 -593 61
-765 73 -895 97 -1043 88 -558 278 -1075 573 -1563 333 -551 783 -1026 1329
-1400 140 -96 550 -347 568 -347 13 0 396 231 519 313 387 258 767 607 1058
974 498 628 817 1386 912 2163 5 47 32 369 60 715 27 347 53 660 56 697 5 48
3 72 -6 83 -11 13 -78 15 -502 15 l-489 0 -37 61 c-306 505 -822 820 -1426
869 -142 11 -165 11 -309 -1z m311 -529 c341 -36 644 -171 877 -391 92 -88
185 -198 185 -221 0 -16 -713 -691 -735 -696 -7 -2 -31 5 -52 16 -60 30 -160
60 -257 77 -300 51 -617 -40 -850 -246 -122 -108 -233 -290 -277 -454 -17 -63
-21 -109 -22 -215 0 -155 19 -242 80 -373 l37 -78 -50 -49 c-167 -165 -680
-640 -691 -640 -16 0 -115 197 -183 361 -118 287 -203 614 -240 919 -14 118
-90 1089 -90 1149 0 33 5 53 17 62 13 11 92 15 383 19 430 6 398 -3 495 139
81 117 257 291 374 369 297 199 653 288 999 252z m1950 -776 c18 -12 22 -25
22 -65 0 -60 -76 -1030 -90 -1149 -95 -792 -457 -1528 -1040 -2110 -213 -214
-423 -381 -685 -546 -219 -138 -238 -146 -316 -142 -62 3 -74 8 -190 78 -387
234 -684 476 -937 764 -148 168 -175 203 -165 218 4 8 172 169 373 358 201
189 384 361 406 383 l42 39 92 -37 c287 -115 612 -98 877 45 439 237 619 749
416 1183 l-37 78 50 49 c27 27 245 234 484 459 l435 410 120 1 c93 0 126 -4
143 -16z m-1957 -890 c85 -26 148 -62 212 -123 103 -98 148 -201 148 -341 0
-100 -17 -163 -66 -245 -46 -75 -75 -107 -147 -155 -89 -59 -175 -85 -288 -85
-114 0 -199 26 -290 87 -77 51 -124 106 -166 193 -154 322 84 684 452 685 55
0 112 -6 145 -16z"/>
</g>
</svg>
