<svg width="30" height="31" fill="none" xmlns="http://www.w3.org/2000/svg"><g clip-path="url(#a)"><path fill-rule="evenodd" clip-rule="evenodd" d="M8.418.812C2.254.812 0 3.065 0 9.227v13.169c0 6.162 2.254 8.415 8.418 8.415h13.16c6.164 0 8.422-2.253 8.422-8.415V9.227C30 3.065 27.746.812 21.582.812H8.418zm4.668 17.399h1.204l-.604-1.405-.6 1.405zm-.297.708-.357.818h-.814l1.73-3.925h.704l1.723 3.925h-.836l-.352-.818h-1.798zm13.091.815h.787V15.81h-.787v3.923zm-3.129-1.685h1.45v-.715h-1.45v-.804h2.104v-.716h-2.89v3.922h2.966v-.715h-2.18v-.972zm-3.124.463-.892-2.7h-.65l-.892 2.7-.867-2.698h-.848l1.369 3.925h.66l.892-2.578.893 2.578h.665l1.366-3.925h-.827l-.87 2.698zm-9.209-.452c0 .638-.317.98-.893.98-.579 0-.897-.352-.897-1.008v-2.218H7.83v2.246c0 1.104.614 1.738 1.683 1.738 1.08 0 1.7-.646 1.7-1.771v-2.215h-.796v2.248zM5.93 15.812h.796v3.927H5.93v-1.595h-1.8v1.595h-.797v-3.927h.797v1.584h1.8v-1.584zm4.07-10c0 2.757 2.243 5 5 5s5-2.243 5-5h-.706A4.299 4.299 0 0 1 15 10.105a4.299 4.299 0 0 1-4.294-4.293H10z" fill="#AFAFAF"/></g><defs><clipPath id="a"><path fill="#fff" transform="translate(0 .812)" d="M0 0h30v30H0z"/></clipPath></defs></svg>