<svg width="156" height="44" fill="none" xmlns="http://www.w3.org/2000/svg"><path d="M30.822 6.708c.24.387.653.643 1.108.643h5.262c.716 0 1.28.61 1.223 1.323l-.667 8.39c-.81 10.188-6.675 19.427-15.838 24.952l-1.767 1.065c-.39.235-.877.235-1.266 0l-1.767-1.065C7.947 36.49 2.082 27.252 1.272 17.064l-.667-8.39a1.226 1.226 0 0 1 1.223-1.323h5.261c.456 0 .869-.256 1.109-.643 2.24-3.618 6.467-5.51 11.312-5.51s9.071 1.892 11.312 5.51z" fill="#0A0A0B"/><path d="M29.473 9.448a.264.264 0 0 0 .231.139h5.863a.26.26 0 0 1 .259.28l-.642 8.053c-.696 8.741-5.737 16.669-13.614 21.409l-1.93 1.161a.26.26 0 0 1-.268 0l-1.93-1.161C9.567 34.589 4.525 26.661 3.829 17.92l-.642-8.053a.26.26 0 0 1 .26-.28h5.862a.264.264 0 0 0 .232-.139c1.853-3.388 5.62-5.707 9.966-5.707 4.346 0 8.114 2.319 9.967 5.707z" fill="#fff"/><path fill-rule="evenodd" clip-rule="evenodd" d="M9.33 27.422a.177.177 0 0 0 .278.043l4.425-4.166a.182.182 0 0 0 .033-.222 5.49 5.49 0 0 1-.704-2.689c0-3.196 2.756-5.787 6.155-5.787a6.44 6.44 0 0 1 2.872.668c.068.033.15.022.206-.03l4.467-4.206a.176.176 0 0 0 .024-.23c-1.643-2.284-4.421-3.786-7.572-3.786-3.3 0-6.191 1.647-7.797 4.116-.266.41-.707.685-1.195.685H6.703a.492.492 0 0 0-.49.53l.5 6.313a21.9 21.9 0 0 0 2.618 8.76zm2.045 2.85a.177.177 0 0 0-.019.237 23.806 23.806 0 0 0 6.473 5.732l.75.454a1.804 1.804 0 0 0 1.87 0l.75-.454c6.432-3.892 10.548-10.402 11.117-17.58l.5-6.312a.492.492 0 0 0-.49-.531h-1.277a.179.179 0 0 0-.123.048l-5.937 5.59a.182.182 0 0 0-.033.222c.457.808.716 1.731.716 2.71 0 3.197-2.756 5.788-6.155 5.788a6.44 6.44 0 0 1-2.895-.68.182.182 0 0 0-.206.03l-5.04 4.745z" fill="#0A0A0B"/><ellipse cx="19.512" cy="20.388" rx="3.183" ry="3.058" fill="#0A0A0B"/><path d="M56.004 27.565 50.28 14.511a5.539 5.539 0 0 1-.258-.73h5.019c.047.218.094.389.164.584l4.737 11.373c.141.366.399.512.68.512.282 0 .493-.122.657-.512l4.69-11.373c.07-.17.141-.39.188-.585h4.948c-.07.244-.14.463-.258.73l-5.675 13.055c-.891 2.046-2.322 3.02-4.573 3.02-2.228 0-3.705-.974-4.596-3.02zM75.535 13.78H86.04c2.251 0 3.705.682 4.76 1.778a6.356 6.356 0 0 1 1.76 4.384c0 1.461-.516 2.85-1.384 3.945-1.079 1.34-2.697 2.217-5.136 2.217h-7.293v4.14h-4.245v-15.44c0-.683.352-1.024 1.032-1.024zm3.213 8.28h7.387c.938 0 1.477-.291 1.83-.778.234-.317.374-.707.374-1.17 0-.487-.14-.9-.398-1.242-.352-.438-.892-.73-1.806-.73h-7.082c-.188 0-.305.097-.305.34v3.58zM116.053 13.78v13.274c0 2.484-1.43 3.531-2.978 3.531-1.337 0-2.345-.39-3.095-1.29l-8.701-10.449c-.117-.146-.234-.22-.375-.22-.211 0-.399.171-.399.464v11.154h-4.174V17.263c0-2.8 1.548-3.848 3.682-3.848 1.501 0 2.439.414 3.424 1.632l7.739 9.62c.117.17.258.195.398.195.188 0 .329-.146.329-.439V13.78h4.15zM137.1 30.244h-11.515c-3.893 0-5.159-1.778-5.159-5.358V13.78h4.268v10.692c0 1.194.305 1.559 1.407 1.559H137.1v4.213zM143.35 22.572l-7.2-8.232c-.234-.268-.328-.39-.398-.56h5.229c.047.122.165.341.376.56l3.986 4.506c.094.098.188.17.329.17.14 0 .234-.072.328-.17l3.963-4.506c.211-.219.352-.438.399-.56h5.136c-.094.17-.188.293-.422.56l-7.434 8.525v7.38h-4.292v-7.673z" fill="#0A0A0B"/></svg>