<svg width="34" height="35" viewBox="0 0 34 35" fill="none" xmlns="http://www.w3.org/2000/svg"><path d="M27.5324 6.26648C27.7198 6.56103 27.3988 6.90416 27.0584 6.82679C26.3925 6.62846 25.6559 6.52929 24.905 6.52929H20.2296C20.0069 6.52929 19.7971 6.42454 19.6633 6.24648L18.0342 4.07846C17.8346 3.79575 18.0233 3.38429 18.3693 3.38429H22.27C24.4814 3.38429 26.4294 4.53283 27.5324 6.26648Z" fill="#F7971E"/><path d="M28.5316 9.81596C27.9225 9.37679 27.2283 9.05096 26.4775 8.86679C25.9675 8.72513 25.4433 8.65429 24.905 8.65429H19.635C18.8133 8.65429 18.7566 8.58346 18.3175 8.00263L16.3341 5.36763C15.4133 4.13513 14.6908 3.38429 12.3816 3.38429H9.09498C5.63831 3.38429 2.83331 6.18929 2.83331 9.64596V25.456C2.83331 28.9126 5.63831 31.7176 9.09498 31.7176H24.905C28.3616 31.7176 31.1666 28.9126 31.1666 25.456V14.916C31.1666 12.8051 30.1325 10.9493 28.5316 9.81596ZM20.3858 23.6993H13.6C13.0475 23.6993 12.6225 23.2601 12.6225 22.7076C12.6225 22.1693 13.0475 21.716 13.6 21.716H20.3858C20.9383 21.716 21.3775 22.1693 21.3775 22.7076C21.3775 23.2601 20.9383 23.6993 20.3858 23.6993Z" fill="#F7971E"/></svg>