<svg width="34" height="34" viewBox="0 0 34 34" fill="none" xmlns="http://www.w3.org/2000/svg"><path d="M26.265 5.83665L18.4733 2.91832C17.6658 2.62082 16.3483 2.62082 15.5408 2.91832L7.74917 5.83665C6.24751 6.40332 5.02917 8.15998 5.02917 9.76081V21.2358C5.02917 22.3833 5.78001 23.8991 6.70084 24.5791L14.4925 30.4016C15.8667 31.4358 18.1192 31.4358 19.4933 30.4016L27.285 24.5791C28.2058 23.885 28.9567 22.3833 28.9567 21.2358V9.76081C28.9708 8.15998 27.7525 6.40332 26.265 5.83665ZM20.7967 19.7908C20.5842 20.0033 20.315 20.1025 20.0458 20.1025C19.7767 20.1025 19.5075 20.0033 19.295 19.7908L17.0425 17.5383L14.7192 19.8616C14.5067 20.0741 14.2375 20.1733 13.9683 20.1733C13.6992 20.1733 13.43 20.0741 13.2175 19.8616C12.8067 19.4508 12.8067 18.7708 13.2175 18.36L15.5408 16.0366L13.2742 13.77C12.8633 13.3591 12.8633 12.6791 13.2742 12.2683C13.685 11.8575 14.365 11.8575 14.7758 12.2683L17.0283 14.5208L19.2242 12.325C19.635 11.9141 20.315 11.9141 20.7258 12.325C21.1367 12.7358 21.1367 13.4158 20.7258 13.8266L18.53 16.0225L20.7825 18.275C21.2075 18.7 21.2075 19.3658 20.7967 19.7908Z" fill="#F7971E"/></svg>