<svg width="34" height="34" viewBox="0 0 34 34" fill="none" xmlns="http://www.w3.org/2000/svg"><path d="M26.2083 5.82247L19.1391 3.17331C17.9633 2.73414 16.0366 2.73414 14.8608 3.17331L7.79164 5.82247C6.16248 6.43164 4.83081 8.35831 4.83081 10.0866V20.6125C4.83081 22.2841 5.93581 24.48 7.28164 25.4858L13.3733 30.0333C15.3708 31.535 18.6575 31.535 20.655 30.0333L26.7466 25.4858C28.0925 24.48 29.1975 22.2841 29.1975 20.6125V10.0866C29.1691 8.35831 27.8375 6.43164 26.2083 5.82247ZM16.9008 9.95914C18.5725 9.95914 19.9325 11.3191 19.9325 12.9908C19.9325 14.6341 18.6433 15.9516 17.0141 16.0083H16.9858H16.9575C16.9291 16.0083 16.9008 16.0083 16.8725 16.0083C15.1725 15.9516 13.8975 14.6341 13.8975 12.9908C13.8833 11.3191 15.2433 9.95914 16.9008 9.95914ZM20.1025 23.1766C19.2383 23.7433 18.1191 24.0408 17 24.0408C15.8808 24.0408 14.7475 23.7575 13.8975 23.1766C13.09 22.6383 12.6508 21.9016 12.6366 21.0941C12.6366 20.3008 13.09 19.5358 13.8975 18.9975C15.6116 17.8641 18.4025 17.8641 20.1166 18.9975C20.9241 19.5358 21.3775 20.2725 21.3775 21.08C21.3633 21.8733 20.91 22.6383 20.1025 23.1766Z" fill="#F7971E"/></svg>