<svg width="34" height="35" viewBox="0 0 34 35" fill="none" xmlns="http://www.w3.org/2000/svg"><path d="M17 24.6286C18.2753 24.6286 19.3091 23.5947 19.3091 22.3194C19.3091 21.0441 18.2753 20.0103 17 20.0103C15.7246 20.0103 14.6908 21.0441 14.6908 22.3194C14.6908 23.5947 15.7246 24.6286 17 24.6286Z" fill="#F7971E"/><path d="M25.8967 13.5501V11.7792C25.8967 7.95424 24.9759 2.88257 17 2.88257C9.02421 2.88257 8.10337 7.95424 8.10337 11.7792V13.5501C4.13671 14.0459 2.83337 16.0576 2.83337 21.0017V23.6367C2.83337 29.4451 4.60421 31.2159 10.4125 31.2159H23.5875C29.3959 31.2159 31.1667 29.4451 31.1667 23.6367V21.0017C31.1667 16.0576 29.8634 14.0459 25.8967 13.5501ZM17 26.5976C14.6342 26.5976 12.7217 24.6709 12.7217 22.3192C12.7217 19.9534 14.6484 18.0409 17 18.0409C19.3517 18.0409 21.2784 19.9676 21.2784 22.3192C21.2784 24.6851 19.3659 26.5976 17 26.5976ZM10.4125 13.4226C10.2992 13.4226 10.2 13.4226 10.0867 13.4226V11.7792C10.0867 7.6284 11.2625 4.8659 17 4.8659C22.7375 4.8659 23.9134 7.6284 23.9134 11.7792V13.4367C23.8 13.4367 23.7009 13.4367 23.5875 13.4367H10.4125V13.4226Z" fill="#F7971E"/></svg>